<svg version="1.1" viewBox="0 0 240 240" xmlns="http://www.w3.org/2000/svg">
  <path
    d="m44.9 73.3c-4.12-1.62-1.34 19-2 28.5 5.55 4.24 13.7 6.4 16.4 13.5 1.28 15.1 0.465 30.4 1.56 45.5 2.44 10.9 17.4 15.9 25.8 8.48 5.26-4.05 6.13-10.9 6.34-17-0.316-9.28 9.86-16.7 18.5-13.3 4.28 1.58 8.42 5.61 9.1 10.2 0.14 16.6-0.114 33.2 0.936 49.8 1.99 8.15 15 6.81 15.4-1.5 0.737-22.6-0.15-45.2 1.06-67.8 0.838-8.37 16.1-7.38 14.9 1.53 0.864 7.43-0.272 15.2 1.7 22.4 3.17 6.66 12.9 8.49 18.4 3.91 6.46-5.06 3.67-14 4.55-21 0.272-6.59-0.0433-13.3 0.555-19.8 3.39-7.84 12.3-9.95 18.4-15 0.0336 8.25 0.0934 16.5 0.152 24.8l-0.386-51.1c-65.8-5.05-101-1.33-151-2z"
    fill="#0f9" />
  <path
    d="m116 5c-17.8 0.375-35.2 7.88-48.1 20-14.5 12.9-23.7 31.4-25 50.8-1.7 7.78 2.95 15.4 9.38 19.5 17 10.3 37.3 12.6 56.7 13.7 20 0.711 40.4-0.268 59.8-5.64 10.7-3.23 23.3-7.83 27.5-19.3 1.4-15.2-3.28-30.5-11.3-43.4-13.2-20.6-36.6-35.3-61.4-35.4-2.54-0.245-5.08-0.337-7.62-0.283zm3.44 13.9c25.6-0.467 50.6 16.7 59.1 40.9-22.7-17.9-88.9-18.9-118 0.309 8.48-23.2 31.6-40.6 56.5-41.1 0.828-0.052 1.66-0.0846 2.48-0.0996zm0.646 56.1c28.6-0.31 49.2 6.28 58.8 10.1-25.7 22.4-100 12.5-118 0 22.1-7.24 42.1-9.91 59.3-10.1zm-33.9 158c-13.7-3.14-28.5-7.37-38.3-18.2-2-3.33-5.19-6.76-5.11-10.8 0.0093-33.9-0.184-67.8 0.0657-102 5.55 4.24 13.7 6.4 16.4 13.5 1.28 15.1 0.466 30.4 1.56 45.5 2.44 10.9 17.4 15.9 25.8 8.48 5.26-4.05 6.14-10.9 6.34-17-0.316-9.28 9.86-16.7 18.5-13.3 4.28 1.58 8.42 5.61 9.1 10.2 0.14 16.6-0.113 33.2 0.936 49.8 1.99 8.15 15 6.81 15.4-1.5 0.737-22.6-0.151-45.2 1.06-67.8 0.838-8.37 16.1-7.38 14.9 1.53 0.864 7.43-0.273 15.2 1.7 22.4 3.17 6.66 12.9 8.49 18.4 3.91 6.46-5.06 3.67-14 4.55-21 0.272-6.59-0.0437-13.3 0.554-19.8 3.39-7.84 12.3-9.95 18.4-15 0.135 33.2 0.679 66.5-3e-3 99.7 0.0221 12.5-11.7 20.5-22 24.9-23.3 9.87-49.4 10.7-74.3 8.53-4.69-0.524-9.36-1.18-14-2.11z"
    fill="#909"/>
</svg>
